{
  "accessors": [
    {
      "bufferView": 2,
      "componentType": 5126,
      "count": 536,
      "max": [
        0.055580098181962967,
        0.86445200443267822,
        0.099350698292255402
      ],
      "min": [
        -0.049542199820280075,
        0.82921499013900757,
        0.069481499493122101
      ],
      "type": "VEC3"
    },
    {
      "bufferView": 2,
      "byteOffset": 6432,
      "componentType": 5126,
      "count": 536,
      "max": [
        0.99884802103042603,
        0.9976387619972229,
        0.99427646398544312
      ],
      "min": [
        -0.99879336357116699,
        -0.99704933166503906,
        -0.41269394755363464
      ],
      "type": "VEC3"
    },
    {
      "bufferView": 3,
      "componentType": 5126,
      "count": 536,
      "max": [
        0.99864202737808228,
        0.62607800960540771,
        0.99542099237442017,
        1
      ],
      "min": [
        -0.99861997365951538,
        -0.71799498796463013,
        -0.99430501461029053,
        -1
      ],
      "type": "VEC4"
    },
    {
      "bufferView": 1,
      "componentType": 5126,
      "count": 536,
      "max": [
        0.99989998340606689,
        0.99602597951889038
      ],
      "min": [
        9.9786098871845752e-05,
        9.9786098871845752e-05
      ],
      "type": "VEC2"
    },
    {
      "bufferView": 0,
      "componentType": 5125,
      "count": 2940,
      "max": [
        535
      ],
      "min": [
        0
      ],
      "type": "SCALAR"
    },
    {
      "bufferView": 2,
      "byteOffset": 12864,
      "componentType": 5126,
      "count": 8320,
      "max": [
        0.7361990213394165,
        0.97293400764465332,
        0.15900599956512451
      ],
      "min": [
        -0.7361990213394165,
        -0.011474000290036201,
        -0.12423499673604965
      ],
      "type": "VEC3"
    },
    {
      "bufferView": 2,
      "byteOffset": 112704,
      "componentType": 5126,
      "count": 8320,
      "max": [
        0.99975097179412842,
        0.99949121475219727,
        0.99939465522766113
      ],
      "min": [
        -0.99926799535751343,
        -0.99881887435913086,
        -0.99993497133255005
      ],
      "type": "VEC3"
    },
    {
      "bufferView": 3,
      "byteOffset": 8576,
      "componentType": 5126,
      "count": 8320,
      "max": [
        0.99978798627853394,
        0.99994099140167236,
        0.99971497058868408,
        1
      ],
      "min": [
        -0.99949699640274048,
        -0.99984502792358398,
        -0.99978500604629517,
        -1
      ],
      "type": "VEC4"
    },
    {
      "bufferView": 1,
      "byteOffset": 4288,
      "componentType": 5126,
      "count": 8320,
      "max": [
        0.98445999622344971,
        0.99076402187347412
      ],
      "min": [
        0.0053848298266530037,
        0.0048485998995602131
      ],
      "type": "VEC2"
    },
    {
      "bufferView": 0,
      "byteOffset": 11760,
      "componentType": 5125,
      "count": 46008,
      "max": [
        8319
      ],
      "min": [
        0
      ],
      "type": "SCALAR"
    },
    {
      "bufferView": 2,
      "byteOffset": 212544,
      "componentType": 5126,
      "count": 5911,
      "max": [
        0.24388599395751953,
        1,
        0.19515900313854218
      ],
      "min": [
        -0.24388599395751953,
        0.19985300302505493,
        -0.21397800743579865
      ],
      "type": "VEC3"
    },
    {
      "bufferView": 2,
      "byteOffset": 283476,
      "componentType": 5126,
      "count": 5911,
      "max": [
        0.99999290704727173,
        0.99999964237213135,
        0.9999576210975647
      ],
      "min": [
        -0.99999290704727173,
        -1,
        -0.99970710277557373
      ],
      "type": "VEC3"
    },
    {
      "bufferView": 3,
      "byteOffset": 141696,
      "componentType": 5126,
      "count": 5911,
      "max": [
        0.99999302625656128,
        0.99993300437927246,
        0.99989998340606689,
        1
      ],
      "min": [
        -1,
        -0.99993401765823364,
        -1,
        -1
      ],
      "type": "VEC4"
    },
    {
      "bufferView": 1,
      "byteOffset": 70848,
      "componentType": 5126,
      "count": 5911,
      "max": [
        0.99967098236083984,
        0.92326599359512329
      ],
      "min": [
        0.00032883000676520169,
        0.00032883000676520169
      ],
      "type": "VEC2"
    },
    {
      "bufferView": 0,
      "byteOffset": 195792,
      "componentType": 5125,
      "count": 29784,
      "max": [
        5910
      ],
      "min": [
        0
      ],
      "type": "SCALAR"
    },
    {
      "bufferView": 2,
      "byteOffset": 354408,
      "componentType": 5126,
      "count": 7149,
      "max": [
        0.65768802165985107,
        0.76451098918914795,
        0.21397800743579865
      ],
      "min": [
        -0.65165102481842041,
        -1,
        -0.20704899728298187
      ],
      "type": "VEC3"
    },
    {
      "bufferView": 2,
      "byteOffset": 440196,
      "componentType": 5126,
      "count": 7149,
      "max": [
        0.99992948770523071,
        0.99958145618438721,
        0.99995487928390503
      ],
      "min": [
        -0.99992948770523071,
        -0.99994289875030518,
        -0.99999409914016724
      ],
      "type": "VEC3"
    },
    {
      "bufferView": 3,
      "byteOffset": 236272,
      "componentType": 5126,
      "count": 7149,
      "max": [
        1,
        0.99976801872253418,
        0.99985998868942261,
        1
      ],
      "min": [
        -1,
        -0.99974900484085083,
        -0.99998301267623901,
        -1
      ],
      "type": "VEC4"
    },
    {
      "bufferView": 1,
      "byteOffset": 118136,
      "componentType": 5126,
      "count": 7149,
      "max": [
        0.99082702398300171,
        0.99964797496795654
      ],
      "min": [
        0.00035236499388702214,
        0.00035236499388702214
      ],
      "type": "VEC2"
    },
    {
      "bufferView": 0,
      "byteOffset": 314928,
      "componentType": 5125,
      "count": 37335,
      "max": [
        7148
      ],
      "min": [
        0
      ],
      "type": "SCALAR"
    }
  ],
  "asset": {
    "extras": {
      "author": "Tactical_Beard (https://sketchfab.com/Tactical_Beard)",
      "license": "CC-BY-4.0 (http://creativecommons.org/licenses/by/4.0/)",
      "source": "https://sketchfab.com/models/8f519608b01247fbb9d7bc119ce961ff",
      "title": "Wehrmacht Soldier"
    },
    "generator": "Sketchfab-3.19.6",
    "version": "2.0"
  },
  "bufferViews": [
    {
      "buffer": 0,
      "byteLength": 464268,
      "byteOffset": 0,
      "name": "floatBufferViews",
      "target": 34963
    },
    {
      "buffer": 0,
      "byteLength": 175328,
      "byteOffset": 464268,
      "byteStride": 8,
      "name": "floatBufferViews",
      "target": 34962
    },
    {
      "buffer": 0,
      "byteLength": 525984,
      "byteOffset": 639596,
      "byteStride": 12,
      "name": "floatBufferViews",
      "target": 34962
    },
    {
      "buffer": 0,
      "byteLength": 350656,
      "byteOffset": 1165580,
      "byteStride": 16,
      "name": "floatBufferViews",
      "target": 34962
    }
  ],
  "buffers": [
    {
      "byteLength": 1516236,
      "uri": "scene.bin"
    }
  ],
  "images": [
    {
      "uri": "textures/material_metallicRoughness.png"
    },
    {
      "uri": "textures/material_normal.png"
    },
    {
      "uri": "textures/material_baseColor.jpeg"
    },
    {
      "uri": "textures/Gear_metallicRoughness.png"
    },
    {
      "uri": "textures/Gear_normal.png"
    },
    {
      "uri": "textures/Gear_baseColor.jpeg"
    },
    {
      "uri": "textures/Skin_metallicRoughness.png"
    },
    {
      "uri": "textures/Skin_normal.png"
    },
    {
      "uri": "textures/Skin_baseColor.jpeg"
    },
    {
      "uri": "textures/Wermarcht_metallicRoughness.png"
    },
    {
      "uri": "textures/Wermarcht_normal.png"
    },
    {
      "uri": "textures/Wermarcht_baseColor.jpeg"
    }
  ],
  "materials": [
    {
      "doubleSided": true,
      "emissiveFactor": [
        0,
        0,
        0
      ],
      "name": "Wermarcht",
      "normalTexture": {
        "index": 10,
        "scale": 1,
        "texCoord": 0
      },
      "occlusionTexture": {
        "index": 9,
        "strength": 1,
        "texCoord": 0
      },
      "pbrMetallicRoughness": {
        "baseColorFactor": [
          1,
          1,
          1,
          1
        ],
        "baseColorTexture": {
          "index": 11,
          "texCoord": 0
        },
        "metallicFactor": 1,
        "metallicRoughnessTexture": {
          "index": 9,
          "texCoord": 0
        },
        "roughnessFactor": 1
      }
    },
    {
      "doubleSided": true,
      "emissiveFactor": [
        0,
        0,
        0
      ],
      "name": "Gear",
      "normalTexture": {
        "index": 4,
        "scale": 1,
        "texCoord": 0
      },
      "occlusionTexture": {
        "index": 3,
        "strength": 1,
        "texCoord": 0
      },
      "pbrMetallicRoughness": {
        "baseColorFactor": [
          1,
          1,
          1,
          1
        ],
        "baseColorTexture": {
          "index": 5,
          "texCoord": 0
        },
        "metallicFactor": 1,
        "metallicRoughnessTexture": {
          "index": 3,
          "texCoord": 0
        },
        "roughnessFactor": 1
      }
    },
    {
      "doubleSided": true,
      "emissiveFactor": [
        0,
        0,
        0
      ],
      "name": "Skin",
      "normalTexture": {
        "index": 7,
        "scale": 1,
        "texCoord": 0
      },
      "occlusionTexture": {
        "index": 6,
        "strength": 1,
        "texCoord": 0
      },
      "pbrMetallicRoughness": {
        "baseColorFactor": [
          1,
          1,
          1,
          1
        ],
        "baseColorTexture": {
          "index": 8,
          "texCoord": 0
        },
        "metallicFactor": 1,
        "metallicRoughnessTexture": {
          "index": 6,
          "texCoord": 0
        },
        "roughnessFactor": 1
      }
    },
    {
      "doubleSided": true,
      "emissiveFactor": [
        0,
        0,
        0
      ],
      "name": "material",
      "normalTexture": {
        "index": 1,
        "scale": 1,
        "texCoord": 0
      },
      "occlusionTexture": {
        "index": 0,
        "strength": 1,
        "texCoord": 0
      },
      "pbrMetallicRoughness": {
        "baseColorFactor": [
          1,
          1,
          1,
          1
        ],
        "baseColorTexture": {
          "index": 2,
          "texCoord": 0
        },
        "metallicFactor": 1,
        "metallicRoughnessTexture": {
          "index": 0,
          "texCoord": 0
        },
        "roughnessFactor": 1
      }
    }
  ],
  "meshes": [
    {
      "name": "defaultMaterial",
      "primitives": [
        {
          "attributes": {
            "NORMAL": 1,
            "POSITION": 0,
            "TANGENT": 2,
            "TEXCOORD_0": 3
          },
          "indices": 4,
          "material": 3,
          "mode": 4
        }
      ]
    },
    {
      "name": "defaultMaterial",
      "primitives": [
        {
          "attributes": {
            "NORMAL": 6,
            "POSITION": 5,
            "TANGENT": 7,
            "TEXCOORD_0": 8
          },
          "indices": 9,
          "material": 2,
          "mode": 4
        }
      ]
    },
    {
      "name": "defaultMaterial",
      "primitives": [
        {
          "attributes": {
            "NORMAL": 11,
            "POSITION": 10,
            "TANGENT": 12,
            "TEXCOORD_0": 13
          },
          "indices": 14,
          "material": 1,
          "mode": 4
        }
      ]
    },
    {
      "name": "defaultMaterial",
      "primitives": [
        {
          "attributes": {
            "NORMAL": 16,
            "POSITION": 15,
            "TANGENT": 17,
            "TEXCOORD_0": 18
          },
          "indices": 19,
          "material": 0,
          "mode": 4
        }
      ]
    }
  ],
  "nodes": [
    {
      "children": [
        1
      ],
      "name": "RootNode (gltf orientation matrix)",
      "rotation": [
        -0.70710678118654746,
        -0,
        -0,
        0.70710678118654757
      ]
    },
    {
      "children": [
        2
      ],
      "name": "RootNode (model correction matrix)"
    },
    {
      "children": [
        3,
        5,
        7,
        9
      ],
      "matrix": [
        1,
        0,
        0,
        0,
        0,
        -4.3711390063094768e-08,
        0.999999999999999,
        0,
        0,
        -0.999999999999999,
        -4.3711390063094768e-08,
        0,
        0,
        0,
        0,
        1
      ],
      "name": "Collada visual scene group"
    },
    {
      "children": [
        4
      ],
      "name": "Cylinder.014"
    },
    {
      "mesh": 0,
      "name": "defaultMaterial"
    },
    {
      "children": [
        6
      ],
      "name": "BlendMann.003"
    },
    {
      "mesh": 1,
      "name": "defaultMaterial"
    },
    {
      "children": [
        8
      ],
      "name": "Cylinder.023"
    },
    {
      "mesh": 2,
      "name": "defaultMaterial"
    },
    {
      "children": [
        10
      ],
      "name": "Cylinder.049"
    },
    {
      "mesh": 3,
      "name": "defaultMaterial"
    }
  ],
  "samplers": [
    {
      "magFilter": 9729,
      "minFilter": 9987,
      "wrapS": 10497,
      "wrapT": 10497
    }
  ],
  "scene": 0,
  "scenes": [
    {
      "name": "OSG_Scene",
      "nodes": [
        0
      ]
    }
  ],
  "textures": [
    {
      "sampler": 0,
      "source": 0
    },
    {
      "sampler": 0,
      "source": 1
    },
    {
      "sampler": 0,
      "source": 2
    },
    {
      "sampler": 0,
      "source": 3
    },
    {
      "sampler": 0,
      "source": 4
    },
    {
      "sampler": 0,
      "source": 5
    },
    {
      "sampler": 0,
      "source": 6
    },
    {
      "sampler": 0,
      "source": 7
    },
    {
      "sampler": 0,
      "source": 8
    },
    {
      "sampler": 0,
      "source": 9
    },
    {
      "sampler": 0,
      "source": 10
    },
    {
      "sampler": 0,
      "source": 11
    }
  ]
}

